<svg xmlns="http://www.w3.org/2000/svg" xmlns:xlink="http://www.w3.org/1999/xlink" width="59" height="60" viewBox="0 0 59 60">
  <defs>
    <filter id="Rectangle_80" x="0" y="0" width="59" height="60" filterUnits="userSpaceOnUse">
      <feOffset dy="3" input="SourceAlpha"/>
      <feGaussianBlur stdDeviation="3" result="blur"/>
      <feFlood flood-opacity="0.161"/>
      <feComposite operator="in" in2="blur"/>
    </filter>
    <filter id="Rectangle_80-2" x="0" y="0" width="59" height="60" filterUnits="userSpaceOnUse">
      <feOffset dy="3" input="SourceAlpha"/>
      <feGaussianBlur stdDeviation="3" result="blur-2"/>
      <feFlood flood-color="#fff" flood-opacity="0.161" result="color"/>
      <feComposite operator="out" in="SourceGraphic" in2="blur-2"/>
      <feComposite operator="in" in="color"/>
      <feComposite operator="in" in2="SourceGraphic"/>
    </filter>
  </defs>
  <g id="Group_65" data-name="Group 65" transform="translate(9.28 6)">
    <g data-type="innerShadowGroup">
      <g transform="matrix(1, 0, 0, 1, -9.28, -6)" filter="url(#Rectangle_80)">
        <g id="Rectangle_80-3" data-name="Rectangle 80" transform="translate(9 6)" fill="#fff" stroke="rgba(255,255,255,0.15)" stroke-width="1">
          <rect width="41" height="42" rx="20.5" stroke="none"/>
          <rect x="0.5" y="0.5" width="40" height="41" rx="20" fill="none"/>
        </g>
      </g>
      <rect id="Rectangle_80-4" data-name="Rectangle 80" width="41" height="42" rx="20.5" transform="translate(-0.28)" fill="#fff"/>
      <g transform="matrix(1, 0, 0, 1, -9.28, -6)" filter="url(#Rectangle_80-2)">
        <rect id="Rectangle_80-5" data-name="Rectangle 80" width="41" height="42" rx="20.5" transform="translate(9 6)" fill="#fff"/>
      </g>
      <g id="Rectangle_80-6" data-name="Rectangle 80" transform="translate(-0.28)" fill="none" stroke="rgba(255,255,255,0.15)" stroke-width="1">
        <rect width="41" height="42" rx="20.5" stroke="none"/>
        <rect x="0.5" y="0.5" width="40" height="41" rx="20" fill="none"/>
      </g>
    </g>
    <g id="_884b960d4e310abd07d33297d22222bb" data-name="884b960d4e310abd07d33297d22222bb" transform="translate(9.599 22.642) rotate(-45)">
      <path id="Path_158" data-name="Path 158" d="M0,6.675H17.8M11.125,0,17.8,6.675,11.125,13.35" transform="translate(0 0)" fill="none" stroke="#255424" stroke-linecap="round" stroke-linejoin="round" stroke-width="4" fill-rule="evenodd"/>
    </g>
  </g>
</svg>
