<svg id="Group_6" data-name="Group 6" xmlns="http://www.w3.org/2000/svg" xmlns:xlink="http://www.w3.org/1999/xlink" width="260.299" height="85.744" viewBox="0 0 260.299 85.744">
  <defs>
    <clipPath id="clip-path">
      <rect id="Rectangle_9" data-name="Rectangle 9" width="260.299" height="85.744" fill="none"/>
    </clipPath>
  </defs>
  <g id="Group_5" data-name="Group 5" clip-path="url(#clip-path)">
    <path id="Path_53" data-name="Path 53" d="M199.419,163.84a10.243,10.243,0,0,1,3.578,1.7c1.819,1.334,4.609,3.82,6.671,4.791s2.911,1.577,4.912,1.7a21.447,21.447,0,0,0,2.668.061s-2.971-.182-4.427-1.455a34.58,34.58,0,0,1-4.73-5.155,6.159,6.159,0,0,0-3.4-2.729,5.453,5.453,0,0,0-3.093.121,6.574,6.574,0,0,0-2.183.97" transform="translate(-161.32 -131.519)" fill="#225225"/>
    <path id="Path_54" data-name="Path 54" d="M242.269,165.241a12.166,12.166,0,0,1,2,2.244c.91,1.334,1.88,2.911,1.88,2.911a15.389,15.389,0,0,0-.788-3.82c-.546-1.091-.546-.97-1.334-1.213a4.916,4.916,0,0,0-1.759-.121" transform="translate(-195.983 -133.647)" fill="#225225"/>
    <path id="Path_55" data-name="Path 55" d="M229.091,19.163a15.1,15.1,0,0,1,.606-8.55,23.455,23.455,0,0,1,2.51-5,39.564,39.564,0,0,0-9.283-3.655A73.175,73.175,0,0,0,212.172.243C209.322,0,209.019,0,209.019,0a113.808,113.808,0,0,0-.182,11.522c.3,3.881.684,7.825,2.078,10.554s2.324,4.354,4.568,5.931a13.755,13.755,0,0,0,7.18,2.859,36.185,36.185,0,0,0,10.006-.849c.55-.13,1.014-.24,1.4-.334l-1.344-1.728c-1.7-2.183-2.789-5.336-3.638-8.793" transform="translate(-168.858)" fill="#245425"/>
    <path id="Path_56" data-name="Path 56" d="M320.689,34.879V33.76a6.919,6.919,0,0,0-2.971-3.793c-.281-.182-.6-.373-.946-.569a23.443,23.443,0,0,0-2.51,5,15.1,15.1,0,0,0-.606,8.55c.849,3.457,1.941,6.61,3.638,8.793l1.344,1.728c1.26-.3,1.761-.434,1.948-.486l-.321-1.97Z" transform="translate(-253.422 -23.782)" fill="#245425"/>
    <path id="Path_57" data-name="Path 57" d="M356.89,17.385a29.151,29.151,0,0,0-8.409.546c-3.881.97-6.387,2.364-7.964,3.88s-3,2.8-3.854,5.589a16.87,16.87,0,0,0-.867,7.581,16.546,16.546,0,0,0,1.617,6.155c.91,2.062.86,2.2,1.1,2.142s3.578-.061,5.7-.364a22.206,22.206,0,0,0,7.944-2.608,13.627,13.627,0,0,0,5.276-6.61,17.508,17.508,0,0,0,1.091-9.824,59.586,59.586,0,0,0-1.334-6.367Z" transform="translate(-271.551 -13.989)" fill="#a2c223"/>
    <path id="Path_58" data-name="Path 58" d="M82.863,53.789l.069-.133a12.635,12.635,0,0,0-.786-3.087c-1.321-3.3-3.082-5.393-4.623-6.274s-2.311-1.761-6.494-1.541-5.393.66-10.236,2.091S55.07,46.827,53.529,46.5a13.569,13.569,0,0,1-2.862-.991,11.7,11.7,0,0,0,1.21,3.522A6.778,6.778,0,0,0,55.29,51.34a14.006,14.006,0,0,0,6.164.44c2.972-.33,3.522-.44,3.522-.44a13.092,13.092,0,0,1-5.834,2.2c-3.962.66-6.934.66-9.245-.22s-5.613-3.412-8.365-4.843-2.642-2.2-5.393-1.981-3.3.44-4.623,1.431a8.086,8.086,0,0,0-1.541,1.321,15.773,15.773,0,0,1,3.962,1.321,18.761,18.761,0,0,1,6.274,4.4c2.531,2.641,3.412,4.4,7.044,6.164s4.623,2.311,9.356,2.641,7.374.33,9.135.55,3.3,1.1,2.972,3.412a22.411,22.411,0,0,1-.49,2.584A29.866,29.866,0,1,1,37.085,27.486c-.1-.967-.184-1.953-.262-2.949a85.375,85.375,0,0,1,.014-8.753A41.5,41.5,0,1,0,82.988,57.019q0-1.63-.125-3.23" transform="translate(0 -12.768)" fill="#245425"/>
    <path id="Path_59" data-name="Path 59" d="M430.788,134.016a10.719,10.719,0,0,0-1.851-1.425,8.493,8.493,0,0,0-4.255-1.019,7.421,7.421,0,0,0-4.239,1.577,7.973,7.973,0,0,0-2.508,2.738,10.907,10.907,0,0,0-.745,1.583s.265.236.64.528a5.8,5.8,0,0,1,2.642-.709,12.28,12.28,0,0,1,1.4-.026,3.21,3.21,0,0,1,1.662.2,6.167,6.167,0,0,1,1.4.655,2.812,2.812,0,0,1,.975.694,5.693,5.693,0,0,1,1.221,1.662,6.3,6.3,0,0,0,3.337-2.328,9.586,9.586,0,0,0,1.544-2.811,15.783,15.783,0,0,0-1.221-1.318" transform="translate(-337.486 -106.43)" fill="#245425"/>
    <path id="Path_60" data-name="Path 60" d="M429.836,164.215a5.52,5.52,0,0,0-3.578-3.018,4.944,4.944,0,0,0-1.66-.271c-.076,0-.2-.011-.28-.011a10.315,10.315,0,0,0-1.231.1,5.178,5.178,0,0,0-2.549.726c.177.138.378.289.587.433.355.245.766.51,1.193.745,1.213.667,4.669,1.759,6.185,1.577a7.786,7.786,0,0,0,1.233-.25,8.186,8.186,0,0,0-.584-1.007,8.186,8.186,0,0,1,.584,1.007l.1-.029m-5.223-3.253h0m-.057.012h0m-1.457.225c.1-.017.2-.031.312-.04l.107-.01-.107.01c-.107.009-.211.023-.312.04m1.316-.2-.023.005.023-.005m-.047.01-.052.011.052-.011m-.066.014-.059.012.059-.012m-.068.014-.064.013.064-.013m-.067.013-.069.013.069-.013m-.079.015-.071.013.071-.013m-.083.015-.076.012.076-.012m-.086.014-.084.013.084-.013m-.084.013-.089.012.089-.012m-.1.014-.09.011.09-.011m-.106.013-.1.01.1-.01m5.241,1.719-.067-.082.067.082c.073.088.142.18.209.273-.067-.093-.136-.185-.209-.273" transform="translate(-340.194 -130.172)" fill="#245425"/>
    <path id="Path_61" data-name="Path 61" d="M423.509,166.873a10.7,10.7,0,0,0,1.073,3.332,5.224,5.224,0,0,0,2.182,2.1,6.748,6.748,0,0,0,3.594.856,5.22,5.22,0,0,0,.9-.185,2.686,2.686,0,0,0,.676-.284c.1-.044.069-.053.069-.053a7.319,7.319,0,0,0-.364-3.032,4.557,4.557,0,0,0-2.24-2.657,5.274,5.274,0,0,0-3.693-.615c-2,.243-2.193.543-2.193.543" transform="translate(-342.598 -134.491)" fill="#a2c223"/>
    <path id="Path_62" data-name="Path 62" d="M549.939,144.852h-3.388V129.319h-.064l-2.812,12.336h-2.013l-2.812-12.336h-.064v15.533h-3.2V122.48h4.442l2.653,12.017h.064l2.621-12.017h4.57Z" transform="translate(-433.265 -99.08)" fill="#323232"/>
    <path id="Path_63" data-name="Path 63" d="M629.607,144.852h-3.452l-.735-5.082h-3.74l-.735,5.082h-3.388l3.867-22.372h4.315Zm-6.1-17.578-1.374,9.428h2.844l-1.374-9.428Z" transform="translate(-499.573 -99.08)" fill="#323232"/>
    <path id="Path_64" data-name="Path 64" d="M695.12,144.852l-2.685-9.46H690.87v9.46h-3.388V122.48h4.89a5.636,5.636,0,0,1,4.187,1.454,5.73,5.73,0,0,1,1.438,4.2v1.6q0,3.548-2.4,4.922l3.1,10.2Zm-4.251-19.24v6.648h1.374a2.232,2.232,0,0,0,1.79-.671,3.141,3.141,0,0,0,.575-2.077v-1.151a3.142,3.142,0,0,0-.575-2.077,2.232,2.232,0,0,0-1.79-.671Z" transform="translate(-556.138 -99.08)" fill="#323232"/>
    <path id="Path_65" data-name="Path 65" d="M758.917,144.852h-3.452l-.735-5.082h-3.739l-.735,5.082h-3.388l3.867-22.372h4.315Zm-6.1-17.578-1.374,9.428h2.844l-1.374-9.428Z" transform="translate(-604.179 -99.08)" fill="#323232"/>
    <path id="Path_66" data-name="Path 66" d="M538.977,291.656h5.657v3.2H535.59V272.48h3.388Z" transform="translate(-433.265 -220.422)" fill="#323232"/>
    <rect id="Rectangle_7" data-name="Rectangle 7" width="3.388" height="22.372" transform="translate(112.424 52.057)" fill="#323232"/>
    <path id="Path_67" data-name="Path 67" d="M628.761,275.612h-5.977v6.328h4.794v3.132h-4.794v9.78H619.4V272.48h9.364Z" transform="translate(-501.061 -220.423)" fill="#323232"/>
    <path id="Path_68" data-name="Path 68" d="M683.789,275.612h-6.136v6.328h4.954v3.132h-4.954v6.648h6.136v3.132h-9.524V272.48h9.524Z" transform="translate(-545.446 -220.423)" fill="#323232"/>
    <path id="Path_69" data-name="Path 69" d="M736.251,272.118a5.015,5.015,0,0,1,1.31,3.707v.575l-3.26.319v-.831a2.1,2.1,0,0,0-.447-1.454,1.9,1.9,0,0,0-2.557,0,2.1,2.1,0,0,0-.448,1.454v.288a3.733,3.733,0,0,0,.607,2,11.093,11.093,0,0,0,2.237,2.349,15.593,15.593,0,0,1,3.292,3.579,6.825,6.825,0,0,1,.959,3.579V288.8a4.912,4.912,0,0,1-1.358,3.707,6.41,6.41,0,0,1-7.766,0,4.911,4.911,0,0,1-1.358-3.707v-1.5l3.26-.32v1.6q0,2.11,1.918,2.109t1.918-2.109v-.735a3.7,3.7,0,0,0-.639-2.061,12.384,12.384,0,0,0-2.3-2.381,14.784,14.784,0,0,1-3.228-3.532,6.913,6.913,0,0,1-.927-3.563v-.479a5.3,5.3,0,0,1,8.789-3.707" transform="translate(-588.48 -219.07)" fill="#323232"/>
    <path id="Path_70" data-name="Path 70" d="M795.1,272.229a5.408,5.408,0,0,1,1.39,3.947v2.013l-3.26.16v-1.822q0-2.589-1.918-2.589a1.774,1.774,0,0,0-1.422.575,2.531,2.531,0,0,0-.5,1.694v12.209a2.53,2.53,0,0,0,.5,1.694,1.774,1.774,0,0,0,1.422.575q1.918,0,1.918-2.589V285.6l3.26.16v2.685a5.406,5.406,0,0,1-1.39,3.947,5.181,5.181,0,0,1-3.883,1.422,5.114,5.114,0,0,1-3.835-1.406,5.431,5.431,0,0,1-1.375-3.963V276.176a5.431,5.431,0,0,1,1.375-3.963,5.115,5.115,0,0,1,3.835-1.406,5.182,5.182,0,0,1,3.883,1.422" transform="translate(-635.842 -219.069)" fill="#323232"/>
    <rect id="Rectangle_8" data-name="Rectangle 8" width="3.388" height="22.372" transform="translate(162.408 52.057)" fill="#323232"/>
    <path id="Path_71" data-name="Path 71" d="M890.548,275.612h-6.136v6.328h4.954v3.132h-4.954v6.648h6.136v3.132h-9.524V272.48h9.524Z" transform="translate(-712.704 -220.423)" fill="#323232"/>
    <path id="Path_72" data-name="Path 72" d="M951.1,294.852h-3.324l-4.442-14.829h-.064v14.829h-3.2V272.48h3.771l4,13.327h.064V272.48h3.2Z" transform="translate(-760.473 -220.423)" fill="#323232"/>
    <path id="Path_73" data-name="Path 73" d="M1018.256,272.229a5.408,5.408,0,0,1,1.39,3.947v2.013l-3.26.16v-1.822q0-2.589-1.918-2.589a1.775,1.775,0,0,0-1.422.575,2.531,2.531,0,0,0-.5,1.694v12.209a2.53,2.53,0,0,0,.5,1.694,1.775,1.775,0,0,0,1.422.575q1.917,0,1.918-2.589V285.6l3.26.16v2.685a5.406,5.406,0,0,1-1.39,3.947,5.181,5.181,0,0,1-3.883,1.422,5.114,5.114,0,0,1-3.835-1.406,5.431,5.431,0,0,1-1.374-3.963V276.176a5.432,5.432,0,0,1,1.374-3.963,5.115,5.115,0,0,1,3.835-1.406,5.183,5.183,0,0,1,3.883,1.422" transform="translate(-816.362 -219.069)" fill="#323232"/>
    <path id="Path_74" data-name="Path 74" d="M1082.757,275.612h-6.136v6.328h4.954v3.132h-4.954v6.648h6.136v3.132h-9.524V272.48h9.524Z" transform="translate(-868.192 -220.423)" fill="#323232"/>
    <path id="Path_75" data-name="Path 75" d="M1135.219,272.118a5.014,5.014,0,0,1,1.31,3.707v.575l-3.26.319v-.831a2.105,2.105,0,0,0-.448-1.454,1.9,1.9,0,0,0-2.557,0,2.1,2.1,0,0,0-.447,1.454v.288a3.733,3.733,0,0,0,.607,2,11.1,11.1,0,0,0,2.237,2.349,15.6,15.6,0,0,1,3.292,3.579,6.825,6.825,0,0,1,.959,3.579V288.8a4.913,4.913,0,0,1-1.358,3.707,6.41,6.41,0,0,1-7.766,0,4.91,4.91,0,0,1-1.358-3.707v-1.5l3.26-.32v1.6q0,2.11,1.918,2.109t1.917-2.109v-.735a3.7,3.7,0,0,0-.639-2.061,12.38,12.38,0,0,0-2.3-2.381,14.792,14.792,0,0,1-3.228-3.532,6.913,6.913,0,0,1-.927-3.563v-.479a5.3,5.3,0,0,1,8.789-3.707" transform="translate(-911.225 -219.07)" fill="#323232"/>
    <path id="Path_76" data-name="Path 76" d="M1213.791,291.656h5.657v3.2H1210.4V272.48h3.388Z" transform="translate(-979.156 -220.422)" fill="#323232"/>
    <path id="Path_77" data-name="Path 77" d="M1257.15,275.676h-3.611v19.176h-3.388V275.676h-3.612v-3.2h10.611Z" transform="translate(-1008.387 -220.422)" fill="#323232"/>
    <path id="Path_78" data-name="Path 78" d="M1316.642,273.934a5.73,5.73,0,0,1,1.438,4.2v11.058a5.729,5.729,0,0,1-1.438,4.2,5.635,5.635,0,0,1-4.187,1.454H1307.6V272.48h4.858a5.636,5.636,0,0,1,4.187,1.454m-5.657,1.678V291.72h1.342a2.232,2.232,0,0,0,1.79-.671,3.141,3.141,0,0,0,.575-2.077V278.361a3.142,3.142,0,0,0-.575-2.077,2.232,2.232,0,0,0-1.79-.671Z" transform="translate(-1057.78 -220.423)" fill="#323232"/>
  </g>
</svg>
