<svg id="Group_6" data-name="Group 6" xmlns="http://www.w3.org/2000/svg" xmlns:xlink="http://www.w3.org/1999/xlink" width="264.212" height="87.033" viewBox="0 0 264.212 87.033">
  <defs>
    <clipPath id="clip-path">
      <rect id="Rectangle_9" data-name="Rectangle 9" width="264.212" height="87.033" fill="none"/>
    </clipPath>
  </defs>
  <g id="Group_5" data-name="Group 5" clip-path="url(#clip-path)">
    <path id="Path_53" data-name="Path 53" d="M199.419,163.859a10.4,10.4,0,0,1,3.632,1.724c1.847,1.354,4.678,3.878,6.771,4.863s2.955,1.6,4.986,1.723a21.767,21.767,0,0,0,2.708.062s-3.016-.185-4.493-1.477a35.1,35.1,0,0,1-4.8-5.232,6.252,6.252,0,0,0-3.447-2.77,5.535,5.535,0,0,0-3.139.123,6.672,6.672,0,0,0-2.216.985" transform="translate(-160.747 -131.052)" fill="#225225"/>
    <path id="Path_54" data-name="Path 54" d="M242.269,165.241a12.348,12.348,0,0,1,2.031,2.277c.923,1.354,1.908,2.955,1.908,2.955a15.62,15.62,0,0,0-.8-3.878c-.554-1.108-.554-.985-1.354-1.231a4.99,4.99,0,0,0-1.785-.123" transform="translate(-195.288 -133.172)" fill="#225225"/>
    <path id="Path_55" data-name="Path 55" d="M229.4,19.451a15.327,15.327,0,0,1,.616-8.679A23.808,23.808,0,0,1,232.56,5.7a40.159,40.159,0,0,0-9.422-3.71A74.275,74.275,0,0,0,212.224.246C209.331,0,209.023,0,209.023,0a115.518,115.518,0,0,0-.185,11.7c.308,3.939.694,7.943,2.109,10.713s2.359,4.42,4.637,6.02a13.962,13.962,0,0,0,7.288,2.9,36.729,36.729,0,0,0,10.156-.862c.559-.131,1.029-.243,1.426-.339l-1.364-1.754c-1.723-2.216-2.831-5.417-3.693-8.925" transform="translate(-168.259)" fill="#245425"/>
    <path id="Path_56" data-name="Path 56" d="M320.8,34.961V33.825a7.023,7.023,0,0,0-3.016-3.85c-.285-.184-.608-.378-.96-.577a23.8,23.8,0,0,0-2.548,5.071,15.326,15.326,0,0,0-.616,8.679c.862,3.509,1.97,6.709,3.693,8.925l1.364,1.754c1.279-.307,1.787-.44,1.977-.493l-.326-2Z" transform="translate(-252.522 -23.697)" fill="#245425"/>
    <path id="Path_57" data-name="Path 57" d="M357.208,17.386a29.589,29.589,0,0,0-8.536.555c-3.939.985-6.483,2.4-8.083,3.939s-3.05,2.841-3.912,5.673a17.125,17.125,0,0,0-.88,7.7,16.794,16.794,0,0,0,1.642,6.248c.923,2.093.873,2.236,1.119,2.174s3.632-.061,5.786-.369a22.54,22.54,0,0,0,8.063-2.647,13.832,13.832,0,0,0,5.355-6.709,17.771,17.771,0,0,0,1.108-9.971,60.489,60.489,0,0,0-1.354-6.463Z" transform="translate(-270.587 -13.939)" fill="#a2c223"/>
    <path id="Path_58" data-name="Path 58" d="M84.108,54.361l.07-.135a12.825,12.825,0,0,0-.8-3.133c-1.341-3.352-3.128-5.474-4.692-6.368S76.342,42.937,72.1,43.16s-5.474.67-10.39,2.123-5.81,2.011-7.373,1.676a13.773,13.773,0,0,1-2.9-1.005,11.877,11.877,0,0,0,1.229,3.575,6.88,6.88,0,0,0,3.463,2.346,14.216,14.216,0,0,0,6.256.447c3.017-.335,3.575-.447,3.575-.447a13.289,13.289,0,0,1-5.921,2.234c-4.022.67-7.038.67-9.384-.223s-5.7-3.463-8.491-4.916-2.681-2.234-5.474-2.011-3.352.447-4.692,1.452a8.208,8.208,0,0,0-1.564,1.341,16.01,16.01,0,0,1,4.022,1.341,19.043,19.043,0,0,1,6.368,4.469c2.569,2.681,3.463,4.469,7.15,6.256s4.692,2.346,9.5,2.681,7.485.335,9.273.559,3.352,1.117,3.017,3.463a22.746,22.746,0,0,1-.5,2.623A30.315,30.315,0,1,1,37.642,27.662c-.1-.982-.187-1.983-.266-2.993a86.658,86.658,0,0,1,.015-8.884A42.119,42.119,0,1,0,84.235,57.639q0-1.655-.127-3.278" transform="translate(0 -12.723)" fill="#245425"/>
    <path id="Path_59" data-name="Path 59" d="M430.992,134.053a10.874,10.874,0,0,0-1.879-1.447,8.62,8.62,0,0,0-4.319-1.034,7.533,7.533,0,0,0-4.3,1.6,8.093,8.093,0,0,0-2.546,2.779,11.07,11.07,0,0,0-.756,1.607s.269.239.649.536a5.882,5.882,0,0,1,2.682-.719,12.468,12.468,0,0,1,1.421-.027,3.258,3.258,0,0,1,1.687.2,6.257,6.257,0,0,1,1.419.665,2.854,2.854,0,0,1,.99.7,5.779,5.779,0,0,1,1.239,1.687,6.4,6.4,0,0,0,3.387-2.363,9.729,9.729,0,0,0,1.567-2.853,16.012,16.012,0,0,0-1.24-1.338" transform="translate(-336.288 -106.053)" fill="#245425"/>
    <path id="Path_60" data-name="Path 60" d="M429.976,164.265a5.6,5.6,0,0,0-3.632-3.064,5.018,5.018,0,0,0-1.685-.275c-.077,0-.2-.011-.284-.011a10.462,10.462,0,0,0-1.249.1,5.257,5.257,0,0,0-2.587.737c.18.14.384.293.6.44.36.249.777.517,1.211.756,1.231.677,4.74,1.785,6.278,1.6a7.909,7.909,0,0,0,1.252-.254,8.316,8.316,0,0,0-.593-1.022,8.316,8.316,0,0,1,.593,1.022l.1-.03m-5.3-3.3h0m-.058.012h0m-1.479.229c.1-.018.208-.032.316-.041l.109-.01-.109.01c-.109.009-.214.023-.316.041m1.336-.2-.023.005.023-.005m-.048.01-.053.011.053-.011m-.067.014-.06.012.06-.012m-.069.014-.065.013.065-.013m-.068.014-.07.013.07-.013m-.081.015-.072.013.072-.013m-.084.015-.077.012.077-.012m-.087.014-.085.013.085-.013m-.086.013-.09.012.09-.012m-.1.014-.092.011.092-.011m-.108.013-.1.01.1-.01m5.319,1.745-.068-.083.068.083c.074.09.144.183.212.278-.068-.095-.138-.188-.212-.278" transform="translate(-338.987 -129.71)" fill="#245425"/>
    <path id="Path_61" data-name="Path 61" d="M423.509,166.883a10.861,10.861,0,0,0,1.089,3.382,5.3,5.3,0,0,0,2.214,2.127,6.849,6.849,0,0,0,3.648.868,5.3,5.3,0,0,0,.91-.188,2.726,2.726,0,0,0,.686-.288c.1-.045.07-.054.07-.054a7.428,7.428,0,0,0-.369-3.078,4.626,4.626,0,0,0-2.274-2.7,5.353,5.353,0,0,0-3.749-.624c-2.031.246-2.226.551-2.226.551" transform="translate(-341.381 -134.014)" fill="#a2c223"/>
    <path id="Path_62" data-name="Path 62" d="M550.155,145.188h-3.439V129.422h-.065L543.8,141.944h-2.044L538.9,129.422h-.065v15.766h-3.244V122.48H540.1l2.693,12.2h.065l2.66-12.2h4.639Z" transform="translate(-431.727 -98.729)" fill="#323232"/>
    <path id="Path_63" data-name="Path 63" d="M629.788,145.188h-3.5l-.746-5.158h-3.8L621,145.188h-3.439l3.925-22.708h4.379Zm-6.2-17.842-1.395,9.57h2.887l-1.395-9.57Z" transform="translate(-497.8 -98.728)" fill="#323232"/>
    <path id="Path_64" data-name="Path 64" d="M695.235,145.188l-2.725-9.6h-1.59v9.6h-3.439V122.48h4.963a5.72,5.72,0,0,1,4.25,1.476,5.816,5.816,0,0,1,1.46,4.266v1.622q0,3.6-2.433,5l3.147,10.348Zm-4.315-19.529v6.748h1.395a2.265,2.265,0,0,0,1.817-.681,3.188,3.188,0,0,0,.584-2.109v-1.168a3.189,3.189,0,0,0-.584-2.109,2.266,2.266,0,0,0-1.817-.681Z" transform="translate(-554.164 -98.728)" fill="#323232"/>
    <path id="Path_65" data-name="Path 65" d="M759.1,145.188h-3.5l-.746-5.158h-3.8l-.746,5.158h-3.439l3.925-22.708h4.379Zm-6.2-17.842-1.395,9.57h2.887L753,127.346Z" transform="translate(-602.034 -98.728)" fill="#323232"/>
    <path id="Path_66" data-name="Path 66" d="M539.028,291.944h5.742v3.244H535.59V272.48h3.439Z" transform="translate(-431.727 -219.64)" fill="#323232"/>
    <rect id="Rectangle_7" data-name="Rectangle 7" width="3.439" height="22.708" transform="translate(114.114 52.84)" fill="#323232"/>
    <path id="Path_67" data-name="Path 67" d="M628.9,275.659h-6.066v6.423H627.7v3.179h-4.866v9.927H619.4V272.48H628.9Z" transform="translate(-499.283 -219.64)" fill="#323232"/>
    <path id="Path_68" data-name="Path 68" d="M683.932,275.659H677.7v6.423h5.028v3.179H677.7v6.747h6.229v3.179h-9.667V272.48h9.667Z" transform="translate(-543.51 -219.64)" fill="#323232"/>
    <path id="Path_69" data-name="Path 69" d="M736.383,272.138a5.09,5.09,0,0,1,1.33,3.763v.584l-3.309.324v-.843a2.137,2.137,0,0,0-.454-1.476,1.926,1.926,0,0,0-2.6,0,2.134,2.134,0,0,0-.454,1.476v.292a3.789,3.789,0,0,0,.616,2.027,11.257,11.257,0,0,0,2.271,2.384,15.829,15.829,0,0,1,3.341,3.633,6.928,6.928,0,0,1,.973,3.633v1.136a4.986,4.986,0,0,1-1.378,3.763,6.506,6.506,0,0,1-7.883,0,4.984,4.984,0,0,1-1.379-3.763v-1.525l3.309-.324v1.622q0,2.141,1.946,2.141t1.946-2.141V288.1a3.755,3.755,0,0,0-.649-2.092,12.564,12.564,0,0,0-2.336-2.417A15.009,15.009,0,0,1,728.4,280a7.017,7.017,0,0,1-.941-3.617V275.9a5.38,5.38,0,0,1,8.921-3.763" transform="translate(-586.391 -218.292)" fill="#323232"/>
    <path id="Path_70" data-name="Path 70" d="M795.238,272.251a5.489,5.489,0,0,1,1.411,4.006V278.3l-3.309.162v-1.849q0-2.628-1.946-2.628a1.8,1.8,0,0,0-1.444.584,2.568,2.568,0,0,0-.5,1.719v12.392a2.567,2.567,0,0,0,.5,1.72,1.8,1.8,0,0,0,1.444.584q1.946,0,1.946-2.628v-2.53l3.309.162v2.725a5.487,5.487,0,0,1-1.411,4.006,5.259,5.259,0,0,1-3.942,1.444,5.191,5.191,0,0,1-3.893-1.427,5.513,5.513,0,0,1-1.4-4.023V276.257a5.513,5.513,0,0,1,1.4-4.023,5.192,5.192,0,0,1,3.893-1.427,5.261,5.261,0,0,1,3.942,1.444" transform="translate(-633.585 -218.292)" fill="#323232"/>
    <rect id="Rectangle_8" data-name="Rectangle 8" width="3.439" height="22.708" transform="translate(164.849 52.84)" fill="#323232"/>
    <path id="Path_71" data-name="Path 71" d="M890.691,275.659h-6.229v6.423h5.028v3.179h-5.028v6.747h6.229v3.179h-9.667V272.48h9.667Z" transform="translate(-710.174 -219.64)" fill="#323232"/>
    <path id="Path_72" data-name="Path 72" d="M951.266,295.188h-3.374l-4.509-15.052h-.065v15.052h-3.244V272.48H943.9l4.055,13.528h.065V272.48h3.244Z" transform="translate(-757.773 -219.64)" fill="#323232"/>
    <path id="Path_73" data-name="Path 73" d="M1018.392,272.251a5.489,5.489,0,0,1,1.411,4.006V278.3l-3.309.162v-1.849q0-2.628-1.946-2.628a1.8,1.8,0,0,0-1.444.584,2.569,2.569,0,0,0-.5,1.719v12.392a2.568,2.568,0,0,0,.5,1.72,1.8,1.8,0,0,0,1.444.584q1.946,0,1.946-2.628v-2.53l3.309.162v2.725a5.487,5.487,0,0,1-1.411,4.006,5.259,5.259,0,0,1-3.942,1.444,5.191,5.191,0,0,1-3.893-1.427,5.512,5.512,0,0,1-1.4-4.023V276.257a5.513,5.513,0,0,1,1.4-4.023,5.192,5.192,0,0,1,3.893-1.427,5.261,5.261,0,0,1,3.942,1.444" transform="translate(-813.464 -218.292)" fill="#323232"/>
    <path id="Path_74" data-name="Path 74" d="M1082.9,275.659h-6.229v6.423h5.028v3.179h-5.028v6.747h6.229v3.179h-9.667V272.48h9.667Z" transform="translate(-865.11 -219.64)" fill="#323232"/>
    <path id="Path_75" data-name="Path 75" d="M1135.351,272.138a5.09,5.09,0,0,1,1.33,3.763v.584l-3.309.324v-.843a2.137,2.137,0,0,0-.454-1.476,1.926,1.926,0,0,0-2.6,0,2.134,2.134,0,0,0-.454,1.476v.292a3.789,3.789,0,0,0,.616,2.027,11.259,11.259,0,0,0,2.271,2.384,15.829,15.829,0,0,1,3.341,3.633,6.928,6.928,0,0,1,.973,3.633v1.136a4.986,4.986,0,0,1-1.379,3.763,6.506,6.506,0,0,1-7.883,0,4.984,4.984,0,0,1-1.379-3.763v-1.525l3.309-.324v1.622q0,2.141,1.946,2.141t1.947-2.141V288.1a3.756,3.756,0,0,0-.649-2.092,12.564,12.564,0,0,0-2.336-2.417,15.012,15.012,0,0,1-3.276-3.585,7.017,7.017,0,0,1-.941-3.617V275.9a5.38,5.38,0,0,1,8.921-3.763" transform="translate(-907.991 -218.292)" fill="#323232"/>
    <path id="Path_76" data-name="Path 76" d="M1213.842,291.944h5.742v3.244H1210.4V272.48h3.439Z" transform="translate(-975.68 -219.64)" fill="#323232"/>
    <path id="Path_77" data-name="Path 77" d="M1257.309,275.724h-3.666v19.464H1250.2V275.724h-3.666v-3.244h10.77Z" transform="translate(-1004.808 -219.64)" fill="#323232"/>
    <path id="Path_78" data-name="Path 78" d="M1316.778,273.956a5.815,5.815,0,0,1,1.46,4.266v11.224a5.814,5.814,0,0,1-1.46,4.266,5.719,5.719,0,0,1-4.25,1.476H1307.6V272.48h4.931a5.72,5.72,0,0,1,4.25,1.476m-5.742,1.7v16.35h1.362a2.265,2.265,0,0,0,1.817-.681,3.189,3.189,0,0,0,.584-2.109v-10.77a3.189,3.189,0,0,0-.584-2.108,2.265,2.265,0,0,0-1.817-.681Z" transform="translate(-1054.026 -219.64)" fill="#323232"/>
  </g>
</svg>
