<svg id="Group_59" data-name="Group 59" xmlns="http://www.w3.org/2000/svg" xmlns:xlink="http://www.w3.org/1999/xlink" width="201" height="66.211" viewBox="0 0 201 66.211">
  <defs>
    <clipPath id="clip-path">
      <rect id="Rectangle_6" data-name="Rectangle 6" width="201" height="66.211" fill="none"/>
    </clipPath>
  </defs>
  <g id="Group_3" data-name="Group 3" clip-path="url(#clip-path)">
    <path id="Path_27" data-name="Path 27" d="M199.419,163.553a7.911,7.911,0,0,1,2.763,1.311,39.8,39.8,0,0,0,5.151,3.7c1.592.749,2.248,1.217,3.793,1.311a16.562,16.562,0,0,0,2.06.047,6.923,6.923,0,0,1-3.418-1.124,26.7,26.7,0,0,1-3.652-3.98,4.756,4.756,0,0,0-2.622-2.107,4.21,4.21,0,0,0-2.388.094,5.077,5.077,0,0,0-1.686.749" transform="translate(-169.999 -138.595)" fill="#fff"/>
    <path id="Path_28" data-name="Path 28" d="M242.269,165.234a9.394,9.394,0,0,1,1.545,1.733c.7,1.03,1.452,2.248,1.452,2.248a11.881,11.881,0,0,0-.609-2.95c-.421-.843-.421-.749-1.03-.936a3.8,3.8,0,0,0-1.358-.094" transform="translate(-206.528 -140.837)" fill="#fff"/>
    <path id="Path_29" data-name="Path 29" d="M224.454,14.8a11.66,11.66,0,0,1,.468-6.6,18.116,18.116,0,0,1,1.939-3.857,30.551,30.551,0,0,0-7.168-2.822,56.5,56.5,0,0,0-8.3-1.327C209.189,0,208.955,0,208.955,0a87.878,87.878,0,0,0-.14,8.9c.234,3,.528,6.043,1.6,8.15s1.795,3.362,3.527,4.58a10.621,10.621,0,0,0,5.544,2.208,27.942,27.942,0,0,0,7.726-.656l1.085-.258-1.038-1.335a18.439,18.439,0,0,1-2.809-6.79" transform="translate(-177.943)" fill="#fff"/>
    <path id="Path_30" data-name="Path 30" d="M319,33.63v-.864a5.343,5.343,0,0,0-2.295-2.929c-.217-.14-.462-.288-.731-.439a18.1,18.1,0,0,0-1.938,3.858,11.659,11.659,0,0,0-.468,6.6,18.435,18.435,0,0,0,2.809,6.79l1.038,1.335c.973-.234,1.359-.335,1.5-.375l-.248-1.521Z" transform="translate(-267.057 -25.061)" fill="#fff"/>
    <path id="Path_31" data-name="Path 31" d="M352.059,17.364a22.51,22.51,0,0,0-6.494.422,13.37,13.37,0,0,0-6.149,3A9.121,9.121,0,0,0,336.44,25.1a13.027,13.027,0,0,0-.67,5.854,12.776,12.776,0,0,0,1.249,4.753c.7,1.592.664,1.7.851,1.654s2.763-.047,4.4-.281a17.148,17.148,0,0,0,6.134-2.014,10.523,10.523,0,0,0,4.074-5.1,13.52,13.52,0,0,0,.843-7.586,46,46,0,0,0-1.03-4.917Z" transform="translate(-286.161 -14.741)" fill="#a2c223"/>
    <path id="Path_32" data-name="Path 32" d="M63.986,45.131l.054-.1a9.757,9.757,0,0,0-.607-2.384,9.639,9.639,0,0,0-3.57-4.844c-1.19-.68-1.785-1.36-5.014-1.19s-4.165.51-7.9,1.615-4.42,1.53-5.609,1.275a10.478,10.478,0,0,1-2.21-.765,9.036,9.036,0,0,0,.935,2.72,5.234,5.234,0,0,0,2.635,1.785,10.815,10.815,0,0,0,4.76.34c2.295-.255,2.72-.34,2.72-.34a10.11,10.11,0,0,1-4.5,1.7c-3.06.51-5.354.51-7.139-.17s-4.334-2.635-6.459-3.74-2.04-1.7-4.165-1.53-2.55.34-3.57,1.1a6.244,6.244,0,0,0-1.19,1.02,12.179,12.179,0,0,1,3.06,1.02,14.487,14.487,0,0,1,4.845,3.4c1.955,2.04,2.635,3.4,5.439,4.759a14.717,14.717,0,0,0,7.224,2.04c3.655.255,5.694.255,7.054.425s2.55.85,2.295,2.635a17.3,17.3,0,0,1-.379,2A23.062,23.062,0,1,1,28.637,24.82c-.078-.747-.142-1.508-.2-2.277a65.926,65.926,0,0,1,.011-6.759A32.042,32.042,0,1,0,64.082,47.625q0-1.259-.1-2.494" transform="translate(0 -13.455)" fill="#fff"/>
    <path id="Path_33" data-name="Path 33" d="M427.69,133.458a8.272,8.272,0,0,0-1.429-1.1,6.558,6.558,0,0,0-3.286-.787,5.73,5.73,0,0,0-3.273,1.218,6.157,6.157,0,0,0-1.937,2.114,8.418,8.418,0,0,0-.575,1.223s.2.182.494.408a4.475,4.475,0,0,1,2.04-.547,9.488,9.488,0,0,1,1.081-.02,2.479,2.479,0,0,1,1.283.154,4.76,4.76,0,0,1,1.08.506,2.172,2.172,0,0,1,.753.536,4.4,4.4,0,0,1,.943,1.283,4.865,4.865,0,0,0,2.577-1.8,7.4,7.4,0,0,0,1.192-2.171,12.176,12.176,0,0,0-.943-1.018" transform="translate(-355.643 -112.157)" fill="#fff"/>
    <path id="Path_34" data-name="Path 34" d="M427.718,163.464a4.262,4.262,0,0,0-2.763-2.331,3.818,3.818,0,0,0-1.282-.209c-.059,0-.155-.008-.216-.008a7.959,7.959,0,0,0-.951.076,4,4,0,0,0-1.969.561c.137.107.292.223.454.335.274.189.591.394.921.575a11.813,11.813,0,0,0,4.776,1.218,6.016,6.016,0,0,0,.952-.193,6.324,6.324,0,0,0-.451-.778,6.324,6.324,0,0,1,.451.778l.077-.023m-4.033-2.512h0m-.044.009h0m-1.125.174c.078-.013.158-.024.241-.031l.083-.008-.083.008c-.083.007-.163.017-.241.031m1.016-.151-.018,0,.018,0m-.036.008-.04.009.04-.009m-.051.011-.046.009.046-.009m-.053.011-.05.01.05-.01m-.052.01-.053.01.053-.01m-.061.012-.055.01.055-.01m-.064.011-.058.009.058-.009m-.066.011-.065.01.065-.01m-.065.01-.068.009.068-.009m-.078.01-.07.008.07-.008m-.082.01-.074.008.074-.008m4.047,1.327-.052-.063.052.063c.056.068.11.139.162.211-.052-.072-.105-.143-.162-.211" transform="translate(-358.497 -137.176)" fill="#fff"/>
    <path id="Path_35" data-name="Path 35" d="M423.509,166.732a8.262,8.262,0,0,0,.829,2.573,4.034,4.034,0,0,0,1.685,1.618,5.211,5.211,0,0,0,2.775.661,4.036,4.036,0,0,0,.692-.143,2.076,2.076,0,0,0,.522-.219c.076-.034.053-.041.053-.041a5.651,5.651,0,0,0-.281-2.341,3.519,3.519,0,0,0-1.73-2.052,4.072,4.072,0,0,0-2.852-.475c-1.545.187-1.693.419-1.693.419" transform="translate(-361.03 -141.727)" fill="#a2c223"/>
    <path id="Path_36" data-name="Path 36" d="M546.67,139.755h-2.616V127.761h-.049l-2.172,9.526h-1.555l-2.172-9.526h-.049v11.994H535.59V122.48h3.43l2.048,9.279h.049l2.024-9.279h3.529Z" transform="translate(-456.576 -104.411)" fill="#fff"/>
    <path id="Path_37" data-name="Path 37" d="M626.862,139.755H624.2l-.568-3.924h-2.887l-.568,3.924h-2.616l2.986-17.275h3.332Zm-4.714-13.574-1.061,7.28h2.2l-1.061-7.28Z" transform="translate(-526.452 -104.411)" fill="#fff"/>
    <path id="Path_38" data-name="Path 38" d="M693.38,139.755l-2.073-7.305H690.1v7.305h-2.616V122.48h3.776a4.351,4.351,0,0,1,3.233,1.123,4.424,4.424,0,0,1,1.111,3.245v1.234a4,4,0,0,1-1.851,3.8l2.394,7.873ZM690.1,124.9v5.133h1.061a1.723,1.723,0,0,0,1.382-.518,2.426,2.426,0,0,0,.444-1.6v-.888a2.426,2.426,0,0,0-.444-1.6,1.723,1.723,0,0,0-1.382-.518Z" transform="translate(-586.06 -104.411)" fill="#fff"/>
    <path id="Path_39" data-name="Path 39" d="M756.172,139.755h-2.665l-.568-3.924h-2.888l-.568,3.924h-2.616l2.986-17.275h3.332Zm-4.714-13.574-1.061,7.28h2.2l-1.061-7.28Z" transform="translate(-636.685 -104.411)" fill="#fff"/>
    <path id="Path_40" data-name="Path 40" d="M538.206,287.288h4.368v2.468H535.59V272.48h2.616Z" transform="translate(-456.576 -232.282)" fill="#fff"/>
    <rect id="Rectangle_4" data-name="Rectangle 4" width="2.616" height="17.276" transform="translate(86.812 40.198)" fill="#fff"/>
    <path id="Path_41" data-name="Path 41" d="M626.628,274.9h-4.615v4.886h3.7V282.2h-3.7v7.552H619.4V272.48h7.231Z" transform="translate(-528.019 -232.282)" fill="#fff"/>
    <path id="Path_42" data-name="Path 42" d="M681.619,274.9h-4.738v4.886h3.825V282.2h-3.825v5.133h4.738v2.419h-7.355V272.48h7.355Z" transform="translate(-574.793 -232.282)" fill="#fff"/>
    <path id="Path_43" data-name="Path 43" d="M734.248,271.82a3.872,3.872,0,0,1,1.012,2.863v.444l-2.517.247v-.642a1.624,1.624,0,0,0-.346-1.123,1.465,1.465,0,0,0-1.974,0,1.622,1.622,0,0,0-.346,1.123v.222a2.881,2.881,0,0,0,.469,1.542,8.558,8.558,0,0,0,1.727,1.814,12.038,12.038,0,0,1,2.542,2.764,5.271,5.271,0,0,1,.74,2.764v.864a3.793,3.793,0,0,1-1.049,2.863,4.949,4.949,0,0,1-6,0,3.791,3.791,0,0,1-1.049-2.863v-1.16l2.517-.247v1.234q0,1.629,1.481,1.629t1.481-1.629v-.568a2.858,2.858,0,0,0-.494-1.592,9.558,9.558,0,0,0-1.777-1.839,11.424,11.424,0,0,1-2.493-2.727,5.338,5.338,0,0,1-.716-2.752v-.37a4.093,4.093,0,0,1,6.787-2.863" transform="translate(-620.141 -230.857)" fill="#fff"/>
    <path id="Path_44" data-name="Path 44" d="M793.03,271.905a4.176,4.176,0,0,1,1.073,3.048v1.555l-2.517.123v-1.407q0-2-1.481-2a1.369,1.369,0,0,0-1.1.444,1.954,1.954,0,0,0-.382,1.308v9.427a1.953,1.953,0,0,0,.382,1.308,1.37,1.37,0,0,0,1.1.444q1.481,0,1.481-2v-1.925l2.517.124v2.073a4.174,4.174,0,0,1-1.073,3.048,4,4,0,0,1-3,1.1,3.949,3.949,0,0,1-2.961-1.086,4.194,4.194,0,0,1-1.061-3.06v-9.477a4.2,4.2,0,0,1,1.061-3.06,3.95,3.95,0,0,1,2.961-1.086,4,4,0,0,1,3,1.1" transform="translate(-670.052 -230.856)" fill="#fff"/>
    <rect id="Rectangle_5" data-name="Rectangle 5" width="2.616" height="17.276" transform="translate(125.409 40.198)" fill="#fff"/>
    <path id="Path_45" data-name="Path 45" d="M888.379,274.9H883.64v4.886h3.825V282.2H883.64v5.133h4.739v2.419h-7.354V272.48h7.354Z" transform="translate(-751.05 -232.282)" fill="#fff"/>
    <path id="Path_46" data-name="Path 46" d="M948.588,289.755h-2.567l-3.43-11.451h-.049v11.451h-2.468V272.48h2.912l3.085,10.291h.049V272.48h2.468Z" transform="translate(-801.388 -232.282)" fill="#fff"/>
    <path id="Path_47" data-name="Path 47" d="M1016.184,271.905a4.176,4.176,0,0,1,1.073,3.048v1.555l-2.517.123v-1.407q0-2-1.481-2a1.369,1.369,0,0,0-1.1.444,1.954,1.954,0,0,0-.382,1.308v9.427a1.953,1.953,0,0,0,.382,1.308,1.37,1.37,0,0,0,1.1.444q1.481,0,1.481-2v-1.925l2.517.124v2.073a4.174,4.174,0,0,1-1.073,3.048,4,4,0,0,1-3,1.1,3.95,3.95,0,0,1-2.962-1.086,4.194,4.194,0,0,1-1.061-3.06v-9.477a4.2,4.2,0,0,1,1.061-3.06,3.95,3.95,0,0,1,2.962-1.086,4,4,0,0,1,3,1.1" transform="translate(-860.285 -230.856)" fill="#fff"/>
    <path id="Path_48" data-name="Path 48" d="M1080.588,274.9h-4.738v4.886h3.825V282.2h-3.825v5.133h4.738v2.419h-7.354V272.48h7.354Z" transform="translate(-914.903 -232.282)" fill="#fff"/>
    <path id="Path_49" data-name="Path 49" d="M1133.216,271.82a3.872,3.872,0,0,1,1.012,2.863v.444l-2.517.247v-.642a1.625,1.625,0,0,0-.345-1.123,1.465,1.465,0,0,0-1.974,0,1.623,1.623,0,0,0-.345,1.123v.222a2.883,2.883,0,0,0,.469,1.542,8.556,8.556,0,0,0,1.728,1.814,12.051,12.051,0,0,1,2.542,2.764,5.272,5.272,0,0,1,.74,2.764v.864a3.792,3.792,0,0,1-1.049,2.863,4.949,4.949,0,0,1-6,0,3.792,3.792,0,0,1-1.049-2.863v-1.16l2.517-.247v1.234q0,1.629,1.481,1.629t1.481-1.629v-.568a2.856,2.856,0,0,0-.494-1.592,9.54,9.54,0,0,0-1.777-1.839,11.413,11.413,0,0,1-2.493-2.727,5.337,5.337,0,0,1-.716-2.752v-.37a4.093,4.093,0,0,1,6.787-2.863" transform="translate(-960.251 -230.857)" fill="#fff"/>
    <path id="Path_50" data-name="Path 50" d="M1213.02,287.288h4.368v2.468H1210.4V272.48h2.616Z" transform="translate(-1031.838 -232.282)" fill="#fff"/>
    <path id="Path_51" data-name="Path 51" d="M1254.733,274.948h-2.788v14.807h-2.616V274.948h-2.789V272.48h8.193Z" transform="translate(-1062.642 -232.282)" fill="#fff"/>
    <path id="Path_52" data-name="Path 52" d="M1314.581,273.6a4.423,4.423,0,0,1,1.111,3.245v8.539a4.422,4.422,0,0,1-1.111,3.245,4.35,4.35,0,0,1-3.233,1.123H1307.6V272.48h3.751a4.351,4.351,0,0,1,3.233,1.123m-4.368,1.3v12.438h1.036a1.723,1.723,0,0,0,1.382-.518,2.426,2.426,0,0,0,.444-1.6v-8.193a2.426,2.426,0,0,0-.444-1.6,1.723,1.723,0,0,0-1.382-.518Z" transform="translate(-1114.692 -232.282)" fill="#fff"/>
  </g>
</svg>
